<?xml version="1.0" standalone="no"?><!DOCTYPE svg PUBLIC "-//W3C//DTD SVG 1.1//EN" "http://www.w3.org/Graphics/SVG/1.1/DTD/svg11.dtd"><svg t="1666271056927" class="icon" viewBox="0 0 1024 1024" version="1.1" xmlns="http://www.w3.org/2000/svg" p-id="21610" xmlns:xlink="http://www.w3.org/1999/xlink" width="200" height="200"><path d="M783.106 128H115.214C106.262 128 96 135.49 96 144.318v428.434c0 8.826 10.262 17.248 19.214 17.248H230v177.788L410.256 590h372.85c8.954 0 14.894-8.422 14.894-17.248V144.318c0-8.828-5.942-16.318-14.894-16.318z" p-id="21611"></path><path d="M912.792 254H848v333.14c0 31.974-13.83 52.86-50.304 52.86H436.192l-77.81 78h259.376L798 896v-178h114.792c8.956 0 15.208-8.524 15.208-17.364V272.206c0-8.828-6.252-18.206-15.208-18.206z" p-id="21612"></path></svg>