<svg width="18" height="18" viewBox="0 0 18 18" fill="none" xmlns="http://www.w3.org/2000/svg">
<g clip-path="url(#clip0_106_346)">
<path d="M13.2375 4.7625C12.15 3.675 10.6575 3 9.00001 3C5.68501 3 3.00751 5.685 3.00751 9C3.00751 12.315 5.68501 15 9.00001 15C11.7975 15 14.13 13.0875 14.7975 10.5H13.2375C12.6225 12.2475 10.9575 13.5 9.00001 13.5C6.51751 13.5 4.50001 11.4825 4.50001 9C4.50001 6.5175 6.51751 4.5 9.00001 4.5C10.245 4.5 11.355 5.0175 12.165 5.835L9.75001 8.25H15V3L13.2375 4.7625Z" fill="#333333"/>
</g>
<defs>
<clipPath id="clip0_106_346">
<rect width="18" height="18" fill="white"/>
</clipPath>
</defs>
</svg>
