<svg width="40" height="40" viewBox="0 0 40 40" fill="none" xmlns="http://www.w3.org/2000/svg">
<rect width="40" height="40" rx="20" fill="black"/>
<g clip-path="url(#clip0_59_128)">
<path d="M29.739 16.9313L24.7389 22.2433C24.2118 22.8032 23.3333 22.3881 23.3333 21.5617V18.7506C18.3134 18.7885 16.1956 20.1222 17.612 25.4441C17.7676 26.029 17.1659 26.4819 16.7437 26.1211C15.3907 24.9648 14.1667 22.7532 14.1667 20.5208C14.1667 14.8983 18.25 13.7826 23.3333 13.7508V10.9377C23.3333 10.1106 24.2124 9.69681 24.7389 10.2562L29.739 15.5682C30.0869 15.9379 30.0872 16.5614 29.739 16.9313ZM23.3333 24.8095V27.4998H12.2222V14.9998H13.9901C14.0462 14.9997 14.1018 14.9869 14.1534 14.9622C14.205 14.9374 14.2516 14.9011 14.2904 14.8555C14.8096 14.2474 15.4098 13.7661 16.0617 13.3838C16.4482 13.1572 16.305 12.4998 15.8692 12.4998H11.6667C10.7462 12.4998 10 13.3392 10 14.3748V28.1248C10 29.1603 10.7462 29.9998 11.6667 29.9998H23.8889C24.8094 29.9998 25.5556 29.1603 25.5556 28.1248V24.6558C25.5556 24.332 25.2709 24.1063 24.9996 24.2143C24.6192 24.3657 24.2119 24.4109 23.8125 24.3462C23.5601 24.3054 23.3333 24.5226 23.3333 24.8095Z" fill="white"/>
</g>
<defs>
<clipPath id="clip0_59_128">
<rect width="20" height="20" fill="white" transform="translate(10 10)"/>
</clipPath>
</defs>
</svg>
