<svg width="33" height="33" viewBox="0 0 33 33" fill="none" xmlns="http://www.w3.org/2000/svg">
<g clip-path="url(#clip0_1_44)">
<path d="M11.9167 8.45167C11.9167 7.23609 12.3996 6.07031 13.2591 5.21076C14.1186 4.35122 15.2844 3.86834 16.5 3.86834C17.7156 3.86834 18.8814 4.35122 19.7409 5.21076C20.6005 6.07031 21.0833 7.23609 21.0833 8.45167V11H22.9167V8.45167C22.9167 7.60902 22.7507 6.77462 22.4282 5.99612C22.1058 5.21761 21.6331 4.51024 21.0373 3.9144C20.4414 3.31856 19.7341 2.84591 18.9556 2.52344C18.1771 2.20098 17.3427 2.035 16.5 2.035C15.6574 2.035 14.823 2.20098 14.0445 2.52344C13.266 2.84591 12.5586 3.31856 11.9627 3.9144C11.3669 4.51024 10.8943 5.21761 10.5718 5.99612C10.2493 6.77462 10.0833 7.60902 10.0833 8.45167V11H11.9167V8.45167Z" fill="black"/>
<path d="M22.9167 11V13.8417C22.9167 14.0848 22.8201 14.3179 22.6482 14.4898C22.4763 14.6618 22.2431 14.7583 22 14.7583C21.7569 14.7583 21.5237 14.6618 21.3518 14.4898C21.1799 14.3179 21.0833 14.0848 21.0833 13.8417V11H11.9167V13.8417C11.9167 14.0848 11.8201 14.3179 11.6482 14.4898C11.4763 14.6618 11.2431 14.7583 11 14.7583C10.7569 14.7583 10.5237 14.6618 10.3518 14.4898C10.1799 14.3179 10.0833 14.0848 10.0833 13.8417V11H3.66666V29.3333C3.66666 29.8196 3.85981 30.2859 4.20363 30.6297C4.54744 30.9735 5.01376 31.1667 5.49999 31.1667H27.5C27.9862 31.1667 28.4525 30.9735 28.7964 30.6297C29.1402 30.2859 29.3333 29.8196 29.3333 29.3333V11H22.9167Z" fill="black"/>
</g>
<defs>
<clipPath id="clip0_1_44">
<rect width="33" height="33" fill="white"/>
</clipPath>
</defs>
</svg>
