<svg width="40" height="40" viewBox="0 0 40 40" fill="none" xmlns="http://www.w3.org/2000/svg">
<rect width="40" height="40" rx="20" fill="black"/>
<g clip-path="url(#clip0_62_349)">
<path d="M25.625 13.4375C25.625 11.885 26.885 10.625 28.4375 10.625C29.99 10.625 31.25 11.885 31.25 13.4375C31.25 14.99 29.99 16.25 28.4375 16.25C26.885 16.25 25.625 14.99 25.625 13.4375ZM33.0782 8.79689C30.515 6.23376 26.36 6.23376 23.7969 8.79689C22.7544 9.83939 22.1357 11.1444 21.9425 12.5L15.9463 21.5881C15.14 21.6294 14.3413 21.8356 13.6044 22.2031L8.97878 18.5881C7.90815 17.7519 6.36128 17.9413 5.52503 19.0119C4.68878 20.0825 4.87815 21.6294 5.94878 22.4656L10.5163 26.0375C10.0194 27.9931 10.535 30.155 12.0669 31.685C14.3788 33.9969 18.1269 33.9969 20.4388 31.685C21.8582 30.2656 22.4057 28.3025 22.0813 26.465L29.3769 19.9325C30.7325 19.7375 32.0375 19.1188 33.08 18.0781C35.6432 15.515 35.6432 11.36 33.08 8.79689H33.0782ZM16.25 31.4469C14.0713 31.4469 12.3032 29.6806 12.3032 27.5C12.3032 27.4794 12.305 27.4588 12.305 27.4381L14.2663 28.97C14.7163 29.3225 15.2507 29.4913 15.7794 29.4913C16.5107 29.4913 17.2344 29.1669 17.72 28.5463C18.5563 27.4756 18.3669 25.9288 17.2963 25.0925L15.4363 23.6375C15.6988 23.5831 15.9707 23.5531 16.25 23.5531C18.4288 23.5531 20.1969 25.3194 20.1969 27.5C20.1969 29.6806 18.4307 31.4469 16.25 31.4469V31.4469ZM28.4375 18.125C25.8482 18.125 23.75 16.0269 23.75 13.4375C23.75 10.8481 25.8482 8.75001 28.4375 8.75001C31.0269 8.75001 33.125 10.8481 33.125 13.4375C33.125 16.0269 31.0269 18.125 28.4375 18.125Z" fill="white"/>
</g>
<defs>
<clipPath id="clip0_62_349">
<rect width="30" height="30" fill="white" transform="translate(5 5)"/>
</clipPath>
</defs>
</svg>
