<svg width="24" height="24" viewBox="0 0 24 24" fill="none" xmlns="http://www.w3.org/2000/svg">
<g clip-path="url(#clip0_101_370)">
<path d="M12 1.33333C9.89038 1.33333 7.82809 1.95892 6.07396 3.13099C4.31984 4.30305 2.95267 5.96896 2.14533 7.91804C1.338 9.86712 1.12676 12.0118 1.53834 14.081C1.94991 16.1501 2.96581 18.0507 4.45757 19.5425C5.94933 21.0342 7.84995 22.0501 9.91908 22.4617C11.9882 22.8733 14.1329 22.662 16.082 21.8547C18.0311 21.0474 19.697 19.6802 20.8691 17.9261C22.0411 16.172 22.6667 14.1097 22.6667 12C22.6667 9.17102 21.5429 6.45791 19.5425 4.45752C17.5421 2.45713 14.829 1.33333 12 1.33333V1.33333ZM12.04 13.12C11.9274 13.1209 11.8157 13.0995 11.7114 13.057C11.6071 13.0145 11.5123 12.9518 11.4323 12.8724C11.3524 12.7931 11.2889 12.6987 11.2456 12.5948C11.2023 12.4908 11.18 12.3793 11.18 12.2667V5.76666C11.18 5.53857 11.2707 5.31983 11.4319 5.15855C11.5932 4.99727 11.812 4.90666 12.04 4.90666C12.2681 4.90666 12.4869 4.99727 12.6482 5.15855C12.8094 5.31983 12.9 5.53857 12.9 5.76666V12.2667C12.9 12.3793 12.8778 12.4908 12.8345 12.5948C12.7912 12.6987 12.7277 12.7931 12.6478 12.8724C12.5678 12.9518 12.473 13.0145 12.3686 13.057C12.2643 13.0995 12.1527 13.1209 12.04 13.12V13.12ZM12 18.5267C10.5959 18.5433 9.22322 18.1107 8.08229 17.2921C6.94136 16.4735 6.09192 15.3116 5.65792 13.9761C5.22393 12.6407 5.2281 11.2014 5.66983 9.86849C6.11156 8.53554 6.96772 7.37866 8.11338 6.56666C8.31293 6.42443 8.5604 6.36638 8.80238 6.40505C9.04436 6.44371 9.26143 6.57599 9.40671 6.77333C9.47764 6.87078 9.52857 6.9813 9.55658 7.09853C9.58459 7.21576 9.58912 7.33737 9.56991 7.45636C9.5507 7.57535 9.50813 7.68936 9.44465 7.79181C9.38117 7.89427 9.29804 7.98315 9.20005 8.05333C8.54107 8.53728 8.01704 9.18196 7.67791 9.9259C7.33879 10.6698 7.19586 11.4882 7.26278 12.3031C7.32969 13.1179 7.6042 13.9021 8.06015 14.5807C8.51609 15.2594 9.13827 15.8099 9.86737 16.1799C10.5965 16.5499 11.4082 16.7269 12.2251 16.6942C13.042 16.6614 13.837 16.42 14.5341 15.9928C15.2313 15.5657 15.8074 14.9671 16.2075 14.2541C16.6077 13.5412 16.8186 12.7376 16.82 11.92C16.8178 11.1667 16.635 10.4249 16.2871 9.75676C15.9391 9.08864 15.436 8.51365 14.82 8.07999C14.6304 7.93031 14.5077 7.71157 14.479 7.47166C14.4503 7.23176 14.5178 6.99024 14.6667 6.79999C14.814 6.60475 15.032 6.47511 15.2739 6.43896C15.5157 6.4028 15.7621 6.46302 15.96 6.60666C17.0937 7.42796 17.9363 8.58911 18.3654 9.92163C18.7945 11.2542 18.7879 12.6888 18.3466 14.0173C17.9052 15.3458 17.052 16.4992 15.9109 17.31C14.7697 18.1209 13.3998 18.547 12 18.5267Z" fill="#333333"/>
</g>
<defs>
<clipPath id="clip0_101_370">
<rect width="24" height="24" fill="white"/>
</clipPath>
</defs>
</svg>
