<svg width="25" height="31" viewBox="0 0 25 31" fill="none" xmlns="http://www.w3.org/2000/svg">
<path d="M23.3558 2.84963H16.4327C16.156 2.01927 15.628 1.29756 14.9233 0.786295C14.2186 0.275028 13.3726 0 12.5048 0C11.637 0 10.7911 0.275028 10.0863 0.786295C9.38161 1.29756 8.85365 2.01927 8.57692 2.84963H1.92308C1.6876 2.81524 1.44758 2.83167 1.21885 2.89781C0.990119 2.96395 0.777884 3.07831 0.596151 3.23334C0.414417 3.38837 0.267315 3.58054 0.164554 3.79718C0.0617923 4.01381 0.00570728 4.24999 0 4.49011V29.3595C0.001259 29.5762 0.0447876 29.7905 0.1281 29.9903C0.211412 30.19 0.332877 30.3712 0.485559 30.5235C0.63824 30.6758 0.819149 30.7963 1.01795 30.8781C1.21676 30.9598 1.42957 31.0012 1.64423 31H23.3558C23.5704 31.0012 23.7832 30.9598 23.982 30.8781C24.1809 30.7963 24.3618 30.6758 24.5144 30.5235C24.6671 30.3712 24.7886 30.19 24.8719 29.9903C24.9552 29.7905 24.9987 29.5762 25 29.3595V4.49011C24.9987 4.2734 24.9552 4.05907 24.8719 3.85935C24.7886 3.65962 24.6671 3.47842 24.5144 3.32608C24.3618 3.17375 24.1809 3.05327 23.982 2.97152C23.7832 2.88977 23.5704 2.84835 23.3558 2.84963ZM6.04808 5.76173C6.04808 5.50429 6.14938 5.25738 6.3297 5.07534C6.51003 4.8933 6.7546 4.79103 7.00961 4.79103H10.3173V4.17949C10.3173 3.5835 10.5518 3.01192 10.9693 2.5905C11.3867 2.16907 11.9529 1.93231 12.5433 1.93231C13.1336 1.93231 13.6998 2.16907 14.1173 2.5905C14.5347 3.01192 14.7692 3.5835 14.7692 4.17949V4.83957H18.0769C18.3319 4.83957 18.5765 4.94184 18.7568 5.12388C18.9372 5.30592 19.0385 5.55282 19.0385 5.81027V7.55753H6.00962L6.04808 5.76173ZM20.0096 14.7213L11.2404 23.5741L6.20192 18.4876C5.94691 18.2302 5.80364 17.881 5.80364 17.5169C5.80364 17.1528 5.94691 16.8037 6.20192 16.5462C6.45694 16.2888 6.80281 16.1441 7.16346 16.1441C7.52411 16.1441 7.86998 16.2888 8.125 16.5462L11.2596 19.7107L18.125 12.7799C18.38 12.5225 18.7259 12.3778 19.0865 12.3778C19.4472 12.3778 19.7931 12.5225 20.0481 12.7799C20.3031 13.0373 20.4464 13.3865 20.4464 13.7506C20.4464 14.1147 20.3031 14.4639 20.0481 14.7213H20.0096Z" fill="black"/>
</svg>
