<svg width="24" height="24" viewBox="0 0 24 24" fill="none" xmlns="http://www.w3.org/2000/svg">
<path fill-rule="evenodd" clip-rule="evenodd" d="M12 21.6C17.302 21.6 21.6 17.302 21.6 12C21.6 6.69807 17.302 2.4 12 2.4C6.69809 2.4 2.40002 6.69807 2.40002 12C2.40002 17.302 6.69809 21.6 12 21.6ZM13.2 7.2C13.2 6.53727 12.6628 6 12 6C11.3373 6 10.8 6.53727 10.8 7.2V12C10.8 12.3182 10.9265 12.6235 11.1515 12.8485L14.5456 16.2426C15.0142 16.7113 15.774 16.7113 16.2426 16.2426C16.7113 15.774 16.7113 15.0142 16.2426 14.5456L13.2 11.5029V7.2Z" fill="#cccccc"/>
</svg>
