<svg width="14" height="14" viewBox="0 0 14 14" fill="none" xmlns="http://www.w3.org/2000/svg">
<g clip-path="url(#clip0_1_49)">
<path d="M1.63334 3.03334L4.08334 4.66667L6.52517 1.24834C6.57913 1.17272 6.65037 1.11109 6.73296 1.06856C6.81555 1.02603 6.90711 1.00385 7 1.00385C7.0929 1.00385 7.18445 1.02603 7.26705 1.06856C7.34964 1.11109 7.42088 1.17272 7.47484 1.24834L9.91667 4.66667L12.3667 3.03334C12.4594 2.97165 12.5678 2.93779 12.6792 2.93577C12.7905 2.93375 12.9001 2.96364 12.995 3.02192C13.09 3.0802 13.1662 3.16443 13.2147 3.26465C13.2633 3.36488 13.2822 3.47691 13.2691 3.58751L12.3107 11.7349C12.294 11.8768 12.2257 12.0076 12.119 12.1026C12.0122 12.1975 11.8743 12.25 11.7314 12.25H2.26859C2.12571 12.25 1.98781 12.1975 1.88104 12.1026C1.77427 12.0076 1.70605 11.8768 1.68934 11.7349L0.730921 3.58692C0.717971 3.47637 0.736921 3.36442 0.785533 3.26429C0.834145 3.16416 0.910391 3.08003 1.00527 3.02183C1.10015 2.96362 1.2097 2.93378 1.32099 2.93582C1.43227 2.93786 1.54066 2.9717 1.63334 3.03334ZM7 8.75001C7.30942 8.75001 7.60617 8.62709 7.82496 8.4083C8.04375 8.18951 8.16667 7.89276 8.16667 7.58334C8.16667 7.27392 8.04375 6.97718 7.82496 6.75838C7.60617 6.53959 7.30942 6.41667 7 6.41667C6.69059 6.41667 6.39384 6.53959 6.17505 6.75838C5.95625 6.97718 5.83334 7.27392 5.83334 7.58334C5.83334 7.89276 5.95625 8.18951 6.17505 8.4083C6.39384 8.62709 6.69059 8.75001 7 8.75001Z" fill="#EFCC17"/>
</g>
<defs>
<clipPath id="clip0_1_49">
<rect width="14" height="14" fill="white"/>
</clipPath>
</defs>
</svg>
